<svg xmlns="http://www.w3.org/2000/svg" viewBox="0 0 1024 1024" width="1024" height="1024">
  <defs>
    <linearGradient id="bg1" x1="0" y1="0" x2="1" y2="1">
      <stop offset="0" stop-color="#FFD3B0"/>
      <stop offset="1" stop-color="#F5A097"/>
    </linearGradient>
    <linearGradient id="swaddle1" x1="0" y1="0" x2="0" y2="1">
      <stop offset="0" stop-color="#FFFBF3"/>
      <stop offset="1" stop-color="#FFF1E0"/>
    </linearGradient>
    <radialGradient id="cheek" cx="0.5" cy="0.5" r="0.5">
      <stop offset="0" stop-color="#F08A7D" stop-opacity="0.6"/>
      <stop offset="1" stop-color="#F08A7D" stop-opacity="0"/>
    </radialGradient>
  </defs>

  <rect width="1024" height="1024" rx="224" ry="224" fill="url(#bg1)"/>

  <g transform="translate(512 552)">
    <ellipse cx="0" cy="40" rx="300" ry="320" fill="url(#swaddle1)"/>
    <path d="M -270 60 Q -200 200 0 240 Q 200 200 270 60 Q 200 280 0 320 Q -200 280 -270 60 Z"
          fill="#F5A097" opacity="0.55"/>
    <path d="M -260 -20 Q -180 -100 0 -120 Q 180 -100 260 -20"
          stroke="#3B2A2E" stroke-opacity="0.18" stroke-width="14" fill="none" stroke-linecap="round"/>

    <ellipse cx="-80" cy="120" rx="60" ry="40" fill="url(#cheek)"/>
    <ellipse cx="80" cy="120" rx="60" ry="40" fill="url(#cheek)"/>

    <circle cx="-70" cy="40" r="14" fill="#3B2A2E"/>
    <circle cx="70" cy="40" r="14" fill="#3B2A2E"/>

    <path d="M -45 110 Q 0 145 45 110" stroke="#3B2A2E" stroke-width="10" stroke-linecap="round" fill="none"/>
  </g>

  <g transform="translate(760 280)">
    <path d="M 0 0 C -30 -40 -90 -40 -90 0 C -90 30 -45 60 0 90 C 45 60 90 30 90 0 C 90 -40 30 -40 0 0 Z"
          fill="#F5A097" stroke="#FFFBF3" stroke-width="12"/>
  </g>
</svg>
